<?xml version="1.0" encoding="utf-8"?>
<svg viewBox="208.713 110.029 39.713 39.713" xmlns="http://www.w3.org/2000/svg">
  <path d="M 228.57 110.029 C 239.536 110.029 248.426 118.919 248.426 129.886 C 248.426 140.852 239.536 149.742 228.57 149.742 C 217.603 149.742 208.713 140.852 208.713 129.886 C 208.713 118.919 217.603 110.029 228.57 110.029 M 226.584 119.957 C 224.39 119.957 222.613 121.736 222.613 123.929 L 222.613 135.843 C 222.613 138.037 224.39 139.814 226.584 139.814 L 230.555 139.814 C 232.749 139.814 234.527 138.037 234.527 135.843 L 234.527 133.857 L 230.555 133.857 L 230.555 135.843 L 226.584 135.843 L 226.584 123.929 L 230.555 123.929 L 230.555 125.914 L 234.527 125.914 L 234.527 123.929 C 234.527 121.736 232.749 119.957 230.555 119.957 L 226.584 119.957 Z" style="fill: rgb(0, 172, 193);"/>
</svg>